<svg width="200" height="200" viewBox="0 0 200 200" xmlns="http://www.w3.org/2000/svg">
  <!-- Background -->
  <rect width="200" height="200" fill="white"/>
  
  <!-- QR Code Pattern - Orange squares as in the original image -->
  <g fill="#F97316">
    <!-- Finder Patterns (corner squares) -->
    <!-- Top Left -->
    <rect x="10" y="10" width="20" height="20"/>
    <rect x="12" y="12" width="16" height="16" fill="white"/>
    <rect x="14" y="14" width="12" height="12"/>
    
    <!-- Top Right -->
    <rect x="170" y="10" width="20" height="20"/>
    <rect x="172" y="12" width="16" height="16" fill="white"/>
    <rect x="174" y="14" width="12" height="12"/>
    
    <!-- Bottom Left -->
    <rect x="10" y="170" width="20" height="20"/>
    <rect x="12" y="172" width="16" height="16" fill="white"/>
    <rect x="14" y="174" width="12" height="12"/>
    
    <!-- QR Code Data Pattern - Orange squares as in original -->
    <!-- Row 1 -->
    <rect x="40" y="10" width="4" height="4"/>
    <rect x="48" y="10" width="4" height="4"/>
    <rect x="56" y="10" width="4" height="4"/>
    <rect x="64" y="10" width="4" height="4"/>
    <rect x="72" y="10" width="4" height="4"/>
    <rect x="80" y="10" width="4" height="4"/>
    <rect x="88" y="10" width="4" height="4"/>
    <rect x="96" y="10" width="4" height="4"/>
    <rect x="104" y="10" width="4" height="4"/>
    <rect x="112" y="10" width="4" height="4"/>
    <rect x="120" y="10" width="4" height="4"/>
    <rect x="128" y="10" width="4" height="4"/>
    <rect x="136" y="10" width="4" height="4"/>
    <rect x="144" y="10" width="4" height="4"/>
    <rect x="152" y="10" width="4" height="4"/>
    <rect x="160" y="10" width="4" height="4"/>
    
    <!-- Row 2 -->
    <rect x="40" y="18" width="4" height="4"/>
    <rect x="56" y="18" width="4" height="4"/>
    <rect x="64" y="18" width="4" height="4"/>
    <rect x="80" y="18" width="4" height="4"/>
    <rect x="88" y="18" width="4" height="4"/>
    <rect x="104" y="18" width="4" height="4"/>
    <rect x="112" y="18" width="4" height="4"/>
    <rect x="128" y="18" width="4" height="4"/>
    <rect x="136" y="18" width="4" height="4"/>
    <rect x="152" y="18" width="4" height="4"/>
    
    <!-- Row 3 -->
    <rect x="40" y="26" width="4" height="4"/>
    <rect x="48" y="26" width="4" height="4"/>
    <rect x="56" y="26" width="4" height="4"/>
    <rect x="72" y="26" width="4" height="4"/>
    <rect x="80" y="26" width="4" height="4"/>
    <rect x="96" y="26" width="4" height="4"/>
    <rect x="104" y="26" width="4" height="4"/>
    <rect x="120" y="26" width="4" height="4"/>
    <rect x="128" y="26" width="4" height="4"/>
    <rect x="144" y="26" width="4" height="4"/>
    <rect x="152" y="26" width="4" height="4"/>
    <rect x="160" y="26" width="4" height="4"/>
    
    <!-- Row 4 -->
    <rect x="40" y="34" width="4" height="4"/>
    <rect x="48" y="34" width="4" height="4"/>
    <rect x="64" y="34" width="4" height="4"/>
    <rect x="72" y="34" width="4" height="4"/>
    <rect x="88" y="34" width="4" height="4"/>
    <rect x="96" y="34" width="4" height="4"/>
    <rect x="112" y="34" width="4" height="4"/>
    <rect x="120" y="34" width="4" height="4"/>
    <rect x="136" y="34" width="4" height="4"/>
    <rect x="144" y="34" width="4" height="4"/>
    <rect x="160" y="34" width="4" height="4"/>
    
    <!-- Row 5 -->
    <rect x="40" y="42" width="4" height="4"/>
    <rect x="56" y="42" width="4" height="4"/>
    <rect x="64" y="42" width="4" height="4"/>
    <rect x="80" y="42" width="4" height="4"/>
    <rect x="88" y="42" width="4" height="4"/>
    <rect x="104" y="42" width="4" height="4"/>
    <rect x="112" y="42" width="4" height="4"/>
    <rect x="128" y="42" width="4" height="4"/>
    <rect x="136" y="42" width="4" height="4"/>
    <rect x="152" y="42" width="4" height="4"/>
    
    <!-- Row 6 -->
    <rect x="40" y="50" width="4" height="4"/>
    <rect x="48" y="50" width="4" height="4"/>
    <rect x="56" y="50" width="4" height="4"/>
    <rect x="72" y="50" width="4" height="4"/>
    <rect x="80" y="50" width="4" height="4"/>
    <rect x="96" y="50" width="4" height="4"/>
    <rect x="104" y="50" width="4" height="4"/>
    <rect x="120" y="50" width="4" height="4"/>
    <rect x="128" y="50" width="4" height="4"/>
    <rect x="144" y="50" width="4" height="4"/>
    <rect x="152" y="50" width="4" height="4"/>
    <rect x="160" y="50" width="4" height="4"/>
    
    <!-- Row 7 -->
    <rect x="40" y="58" width="4" height="4"/>
    <rect x="48" y="58" width="4" height="4"/>
    <rect x="64" y="58" width="4" height="4"/>
    <rect x="72" y="58" width="4" height="4"/>
    <rect x="88" y="58" width="4" height="4"/>
    <rect x="96" y="58" width="4" height="4"/>
    <rect x="112" y="58" width="4" height="4"/>
    <rect x="120" y="58" width="4" height="4"/>
    <rect x="136" y="58" width="4" height="4"/>
    <rect x="144" y="58" width="4" height="4"/>
    <rect x="160" y="58" width="4" height="4"/>
    
    <!-- Row 8 -->
    <rect x="40" y="66" width="4" height="4"/>
    <rect x="56" y="66" width="4" height="4"/>
    <rect x="64" y="66" width="4" height="4"/>
    <rect x="80" y="66" width="4" height="4"/>
    <rect x="88" y="66" width="4" height="4"/>
    <rect x="104" y="66" width="4" height="4"/>
    <rect x="112" y="66" width="4" height="4"/>
    <rect x="128" y="66" width="4" height="4"/>
    <rect x="136" y="66" width="4" height="4"/>
    <rect x="152" y="66" width="4" height="4"/>
    
    <!-- Row 9 -->
    <rect x="40" y="74" width="4" height="4"/>
    <rect x="48" y="74" width="4" height="4"/>
    <rect x="56" y="74" width="4" height="4"/>
    <rect x="72" y="74" width="4" height="4"/>
    <rect x="80" y="74" width="4" height="4"/>
    <rect x="96" y="74" width="4" height="4"/>
    <rect x="104" y="74" width="4" height="4"/>
    <rect x="120" y="74" width="4" height="4"/>
    <rect x="128" y="74" width="4" height="4"/>
    <rect x="144" y="74" width="4" height="4"/>
    <rect x="152" y="74" width="4" height="4"/>
    <rect x="160" y="74" width="4" height="4"/>
    
    <!-- Row 10 -->
    <rect x="40" y="82" width="4" height="4"/>
    <rect x="48" y="82" width="4" height="4"/>
    <rect x="64" y="82" width="4" height="4"/>
    <rect x="72" y="82" width="4" height="4"/>
    <rect x="88" y="82" width="4" height="4"/>
    <rect x="96" y="82" width="4" height="4"/>
    <rect x="112" y="82" width="4" height="4"/>
    <rect x="120" y="82" width="4" height="4"/>
    <rect x="136" y="82" width="4" height="4"/>
    <rect x="144" y="82" width="4" height="4"/>
    <rect x="160" y="82" width="4" height="4"/>
    
    <!-- Row 11 -->
    <rect x="40" y="90" width="4" height="4"/>
    <rect x="56" y="90" width="4" height="4"/>
    <rect x="64" y="90" width="4" height="4"/>
    <rect x="80" y="90" width="4" height="4"/>
    <rect x="88" y="90" width="4" height="4"/>
    <rect x="104" y="90" width="4" height="4"/>
    <rect x="112" y="90" width="4" height="4"/>
    <rect x="128" y="90" width="4" height="4"/>
    <rect x="136" y="90" width="4" height="4"/>
    <rect x="152" y="90" width="4" height="4"/>
    
    <!-- Row 12 -->
    <rect x="40" y="98" width="4" height="4"/>
    <rect x="48" y="98" width="4" height="4"/>
    <rect x="56" y="98" width="4" height="4"/>
    <rect x="72" y="98" width="4" height="4"/>
    <rect x="80" y="98" width="4" height="4"/>
    <rect x="96" y="98" width="4" height="4"/>
    <rect x="104" y="98" width="4" height="4"/>
    <rect x="120" y="98" width="4" height="4"/>
    <rect x="128" y="98" width="4" height="4"/>
    <rect x="144" y="98" width="4" height="4"/>
    <rect x="152" y="98" width="4" height="4"/>
    <rect x="160" y="98" width="4" height="4"/>
    
    <!-- Row 13 -->
    <rect x="40" y="106" width="4" height="4"/>
    <rect x="48" y="106" width="4" height="4"/>
    <rect x="64" y="106" width="4" height="4"/>
    <rect x="72" y="106" width="4" height="4"/>
    <rect x="88" y="106" width="4" height="4"/>
    <rect x="96" y="106" width="4" height="4"/>
    <rect x="112" y="106" width="4" height="4"/>
    <rect x="120" y="106" width="4" height="4"/>
    <rect x="136" y="106" width="4" height="4"/>
    <rect x="144" y="106" width="4" height="4"/>
    <rect x="160" y="106" width="4" height="4"/>
    
    <!-- Row 14 -->
    <rect x="40" y="114" width="4" height="4"/>
    <rect x="56" y="114" width="4" height="4"/>
    <rect x="64" y="114" width="4" height="4"/>
    <rect x="80" y="114" width="4" height="4"/>
    <rect x="88" y="114" width="4" height="4"/>
    <rect x="104" y="114" width="4" height="4"/>
    <rect x="112" y="114" width="4" height="4"/>
    <rect x="128" y="114" width="4" height="4"/>
    <rect x="136" y="114" width="4" height="4"/>
    <rect x="152" y="114" width="4" height="4"/>
    
    <!-- Row 15 -->
    <rect x="40" y="122" width="4" height="4"/>
    <rect x="48" y="122" width="4" height="4"/>
    <rect x="56" y="122" width="4" height="4"/>
    <rect x="72" y="122" width="4" height="4"/>
    <rect x="80" y="122" width="4" height="4"/>
    <rect x="96" y="122" width="4" height="4"/>
    <rect x="104" y="122" width="4" height="4"/>
    <rect x="120" y="122" width="4" height="4"/>
    <rect x="128" y="122" width="4" height="4"/>
    <rect x="144" y="122" width="4" height="4"/>
    <rect x="152" y="122" width="4" height="4"/>
    <rect x="160" y="122" width="4" height="4"/>
    
    <!-- Row 16 -->
    <rect x="40" y="130" width="4" height="4"/>
    <rect x="48" y="130" width="4" height="4"/>
    <rect x="64" y="130" width="4" height="4"/>
    <rect x="72" y="130" width="4" height="4"/>
    <rect x="88" y="130" width="4" height="4"/>
    <rect x="96" y="130" width="4" height="4"/>
    <rect x="112" y="130" width="4" height="4"/>
    <rect x="120" y="130" width="4" height="4"/>
    <rect x="136" y="130" width="4" height="4"/>
    <rect x="144" y="130" width="4" height="4"/>
    <rect x="160" y="130" width="4" height="4"/>
    
    <!-- Row 17 -->
    <rect x="40" y="138" width="4" height="4"/>
    <rect x="56" y="138" width="4" height="4"/>
    <rect x="64" y="138" width="4" height="4"/>
    <rect x="80" y="138" width="4" height="4"/>
    <rect x="88" y="138" width="4" height="4"/>
    <rect x="104" y="138" width="4" height="4"/>
    <rect x="112" y="138" width="4" height="4"/>
    <rect x="128" y="138" width="4" height="4"/>
    <rect x="136" y="138" width="4" height="4"/>
    <rect x="152" y="138" width="4" height="4"/>
    
    <!-- Row 18 -->
    <rect x="40" y="146" width="4" height="4"/>
    <rect x="48" y="146" width="4" height="4"/>
    <rect x="56" y="146" width="4" height="4"/>
    <rect x="72" y="146" width="4" height="4"/>
    <rect x="80" y="146" width="4" height="4"/>
    <rect x="96" y="146" width="4" height="4"/>
    <rect x="104" y="146" width="4" height="4"/>
    <rect x="120" y="146" width="4" height="4"/>
    <rect x="128" y="146" width="4" height="4"/>
    <rect x="144" y="146" width="4" height="4"/>
    <rect x="152" y="146" width="4" height="4"/>
    <rect x="160" y="146" width="4" height="4"/>
    
    <!-- Row 19 -->
    <rect x="40" y="154" width="4" height="4"/>
    <rect x="48" y="154" width="4" height="4"/>
    <rect x="64" y="154" width="4" height="4"/>
    <rect x="72" y="154" width="4" height="4"/>
    <rect x="88" y="154" width="4" height="4"/>
    <rect x="96" y="154" width="4" height="4"/>
    <rect x="112" y="154" width="4" height="4"/>
    <rect x="120" y="154" width="4" height="4"/>
    <rect x="136" y="154" width="4" height="4"/>
    <rect x="144" y="154" width="4" height="4"/>
    <rect x="160" y="154" width="4" height="4"/>
    
    <!-- Row 20 -->
    <rect x="40" y="162" width="4" height="4"/>
    <rect x="56" y="162" width="4" height="4"/>
    <rect x="64" y="162" width="4" height="4"/>
    <rect x="80" y="162" width="4" height="4"/>
    <rect x="88" y="162" width="4" height="4"/>
    <rect x="104" y="162" width="4" height="4"/>
    <rect x="112" y="162" width="4" height="4"/>
    <rect x="128" y="162" width="4" height="4"/>
    <rect x="136" y="162" width="4" height="4"/>
    <rect x="152" y="162" width="4" height="4"/>
    <rect x="160" y="162" width="4" height="4"/>
  </g>
  
  <!-- Center Logo Circle - White with orange outline as in original -->
  <circle cx="100" cy="100" r="25" fill="white" stroke="#F97316" stroke-width="2"/>
  
  <!-- Noodle Bowl - Orange bowl with white center as in original -->
  <ellipse cx="100" cy="95" rx="12" ry="8" fill="#F97316"/>
  <ellipse cx="100" cy="95" rx="10" ry="6" fill="white"/>
  
  <!-- Noodles - Orange curved lines as in original -->
  <path d="M88 95 Q100 85 112 95" stroke="#F97316" stroke-width="2" fill="none"/>
  <path d="M88 97 Q100 87 112 97" stroke="#F97316" stroke-width="2" fill="none"/>
  <path d="M88 99 Q100 89 112 99" stroke="#F97316" stroke-width="2" fill="none"/>
  
  <!-- Chopsticks - Orange lines as in original -->
  <line x1="95" y1="85" x2="95" y2="105" stroke="#F97316" stroke-width="1.5" stroke-linecap="round"/>
  <line x1="97" y1="83" x2="97" y2="103" stroke="#F97316" stroke-width="1.5" stroke-linecap="round"/>
  
  <!-- Text - CHANOLY NOODLE in orange as in original -->
  <text x="100" y="115" text-anchor="middle" font-family="Arial, sans-serif" font-size="6" font-weight="bold" fill="#F97316">CHANOLY</text>
  <text x="100" y="122" text-anchor="middle" font-family="Arial, sans-serif" font-size="6" font-weight="bold" fill="#F97316">NOODLE</text>
  
  <!-- Decorative underline - Orange line as in original -->
  <line x1="88" y1="125" x2="112" y2="125" stroke="#F97316" stroke-width="0.5"/>
</svg>
